<svg xmlns="http://www.w3.org/2000/svg" viewBox="0 0 200 400">
  <!-- Adductors - Front View - Professional Fitbod Style -->
  <!-- Left Adductor (inner thigh) -->
  <path d="M 76,210 C 78,214 80,224 80,240 C 80,254 80,266 80,274 C 79,280 76,282 74,278 C 72,274 72,264 72,250 C 72,236 73,224 74,216 C 74,212 75,210 76,210 Z" />
  <!-- Right Adductor (inner thigh) -->
  <path d="M 124,210 C 122,214 120,224 120,240 C 120,254 120,266 120,274 C 121,280 124,282 126,278 C 128,274 128,264 128,250 C 128,236 127,224 126,216 C 126,212 125,210 124,210 Z" />
</svg>
