<svg xmlns="http://www.w3.org/2000/svg" viewBox="0 0 200 400">
  <!-- Back (Latissimus Dorsi) - Back View - Professional Fitbod Style -->
  <!-- Left Lat -->
  <path d="M 58,70 C 52,74 46,82 44,92 C 42,102 42,112 44,120 C 46,126 50,130 56,132 C 62,134 68,132 74,128 C 80,124 86,118 92,110 C 96,104 98,96 98,88 C 98,80 94,74 88,70 C 80,66 68,66 58,70 Z" />
  <!-- Right Lat -->
  <path d="M 142,70 C 148,74 154,82 156,92 C 158,102 158,112 156,120 C 154,126 150,130 144,132 C 138,134 132,132 126,128 C 120,124 114,118 108,110 C 104,104 102,96 102,88 C 102,80 106,74 112,70 C 120,66 132,66 142,70 Z" />
  <!-- Lat Definition Lines -->
  <path d="M 52,90 C 58,88 66,86 74,88" opacity="0.2" />
  <path d="M 148,90 C 142,88 134,86 126,88" opacity="0.2" />
</svg>
