<svg xmlns="http://www.w3.org/2000/svg" viewBox="0 0 200 400">
  <!-- Calves - Front View (Tibialis Anterior) - Professional Fitbod Style -->
  <!-- Left Calf (front - tibialis anterior) -->
  <path d="M 68,292 C 66,298 64,308 64,320 C 64,332 66,342 70,348 C 72,352 76,352 78,348 C 80,342 80,332 80,320 C 80,308 78,298 76,292 Z" />
  <!-- Right Calf -->
  <path d="M 132,292 C 134,298 136,308 136,320 C 136,332 134,342 130,348 C 128,352 124,352 122,348 C 120,342 120,332 120,320 C 120,308 122,298 124,292 Z" />
</svg>
