<svg xmlns="http://www.w3.org/2000/svg" viewBox="0 0 200 400">
  <!-- Glutes - Back View - Professional Fitbod Style -->
  <!-- Left Glute -->
  <path d="M 100,162 C 94,162 86,164 78,168 C 72,172 68,178 66,186 C 64,194 66,202 72,208 C 78,212 86,214 94,212 C 98,210 100,206 100,200 L 100,162 Z" />
  <!-- Right Glute -->
  <path d="M 100,162 C 106,162 114,164 122,168 C 128,172 132,178 134,186 C 136,194 134,202 128,208 C 122,212 114,214 106,212 C 102,210 100,206 100,200 L 100,162 Z" />
  <!-- Glute Definition Lines -->
  <path d="M 78,180 C 82,178 88,176 94,178" opacity="0.2" />
  <path d="M 122,180 C 118,178 112,176 106,178" opacity="0.2" />
</svg>
