<svg xmlns="http://www.w3.org/2000/svg" viewBox="0 0 200 400">
  <!-- Hamstrings - Back View - Professional Fitbod Style -->
  <!-- Left Hamstring -->
  <path d="M 72,212 C 68,218 64,228 62,242 C 60,256 60,270 62,280 C 64,288 68,292 74,292 C 78,290 80,284 82,274 C 84,262 84,248 82,234 C 80,222 78,214 76,210 Z" />
  <!-- Right Hamstring -->
  <path d="M 128,212 C 132,218 136,228 138,242 C 140,256 140,270 138,280 C 136,288 132,292 126,292 C 122,290 120,284 118,274 C 116,262 116,248 118,234 C 120,222 122,214 124,210 Z" />
  <!-- Hamstring Definition Lines -->
  <path d="M 68,240 C 70,250 72,260 74,270" opacity="0.15" />
  <path d="M 132,240 C 130,250 128,260 126,270" opacity="0.15" />
  <path d="M 76,230 C 78,242 79,254 80,266" opacity="0.15" />
  <path d="M 124,230 C 122,242 121,254 120,266" opacity="0.15" />
</svg>
