<svg xmlns="http://www.w3.org/2000/svg" viewBox="0 0 200 400">
  <!-- Lower Back (Erector Spinae) - Back View - Professional Fitbod Style -->
  <!-- Left Erector Spinae -->
  <path d="M 86,130 C 82,132 78,138 76,146 C 74,154 74,162 76,168 C 78,172 82,174 86,172 C 88,168 90,162 90,154 C 90,146 88,138 86,134 Z" />
  <!-- Right Erector Spinae -->
  <path d="M 114,130 C 118,132 122,138 124,146 C 126,154 126,162 124,168 C 122,172 118,174 114,172 C 112,168 110,162 110,154 C 110,146 112,138 114,134 Z" />
</svg>
