<svg xmlns="http://www.w3.org/2000/svg" viewBox="0 0 400 800">
  <g fill="none" stroke="currentColor" stroke-width="2">
    <path d="M200,40 C185,40 175,45 175,60 C175,75 185,85 200,85 C215,85 225,75 225,60 C225,45 215,40 200,40 Z M185,85 L185,100 C165,110 120,120 100,140 C80,160 70,200 65,250 C62,280 65,310 75,320 L95,320 L95,200 C110,170 140,150 160,145 L180,140 L180,400 C180,450 160,550 150,750 L200,750 C210,550 220,450 220,400 L220,140 L240,145 C260,150 290,170 305,200 L305,320 L325,320 C335,310 338,280 335,250 C330,200 320,160 300,140 C280,120 235,110 215,100 L215,85 Z" />
  </g>
</svg>
