<svg xmlns="http://www.w3.org/2000/svg" viewBox="0 0 200 400">
  <!-- Professional Back Silhouette - Fitbod Style -->
  <!-- Head -->
  <ellipse cx="100" cy="28" rx="14" ry="17" />
  <!-- Neck -->
  <path d="M 92,44 L 92,52 C 92,55 96,57 100,57 C 104,57 108,55 108,52 L 108,44" />
  <!-- Upper Back + Shoulders -->
  <path d="M 92,52 C 82,54 68,58 58,64 C 48,70 42,80 40,92 C 39,100 40,108 42,114 C 44,118 48,122 52,124 L 58,126 C 60,128 60,132 60,138 L 60,148 C 60,155 64,160 68,162 L 72,164 C 76,166 78,170 78,176 L 78,180" />
  <path d="M 108,52 C 118,54 132,58 142,64 C 152,70 158,80 160,92 C 161,100 160,108 158,114 C 156,118 152,122 148,124 L 142,126 C 140,128 140,132 140,138 L 140,148 C 140,155 136,160 132,162 L 128,164 C 124,166 122,170 122,176 L 122,180" />
  <!-- Left Arm (back view) -->
  <path d="M 40,92 C 36,88 30,86 24,90 C 18,94 14,102 12,114 C 10,128 10,142 12,154 C 13,160 16,164 20,166 C 22,167 24,166 26,164 C 30,158 32,148 34,136 C 36,126 36,116 34,108 C 33,104 34,98 36,94 Z" />
  <!-- Right Arm (back view) -->
  <path d="M 160,92 C 164,88 170,86 176,90 C 182,94 186,102 188,114 C 190,128 190,142 188,154 C 187,160 184,164 180,166 C 178,167 176,166 174,164 C 170,158 168,148 166,136 C 164,126 164,116 166,108 C 167,104 166,98 164,94 Z" />
  <!-- Left Leg (back view) -->
  <path d="M 78,180 C 78,190 76,210 72,230 C 68,250 64,270 62,290 C 60,310 60,330 62,345 C 63,355 66,362 70,365 C 74,368 78,366 80,360 C 82,352 82,340 82,325 C 82,310 80,290 78,270 C 76,250 76,230 78,210 L 80,190" />
  <!-- Right Leg (back view) -->
  <path d="M 122,180 C 122,190 124,210 128,230 C 132,250 136,270 138,290 C 140,310 140,330 138,345 C 137,355 134,362 130,365 C 126,368 122,366 120,360 C 118,352 118,340 118,325 C 118,310 120,290 122,270 C 124,250 124,230 122,210 L 120,190" />
  <!-- Center line -->
  <path d="M 58,148 C 66,150 78,152 100,152 C 122,152 134,150 142,148" />
</svg>
