<svg xmlns="http://www.w3.org/2000/svg" viewBox="0 0 200 400">
  <!-- Professional Back Body Outline with Anatomical Detail - Fitbod Style -->
  <g fill="none" stroke="currentColor" stroke-width="1.8" stroke-linejoin="round" stroke-linecap="round">
    <!-- Head -->
    <ellipse cx="100" cy="28" rx="14" ry="17" />
    <!-- Neck -->
    <path d="M 93,44 C 93,48 93,50 93,53" />
    <path d="M 107,44 C 107,48 107,50 107,53" />
    <!-- Shoulders & Upper Back -->
    <path d="M 93,53 C 83,55 70,58 58,64 C 50,69 44,78 42,90 L 40,92" />
    <path d="M 107,53 C 117,55 130,58 142,64 C 150,69 156,78 158,90 L 160,92" />
    <!-- Left Arm (back) -->
    <path d="M 40,92 C 36,88 30,86 24,90 C 18,94 14,102 12,114 C 10,128 10,142 12,154 C 13,160 16,165 20,167 C 24,169 28,166 30,162 C 34,156 36,146 38,134 C 40,122 40,112 38,104 C 37,100 38,96 40,92" />
    <!-- Right Arm (back) -->
    <path d="M 160,92 C 164,88 170,86 176,90 C 182,94 186,102 188,114 C 190,128 190,142 188,154 C 187,160 184,165 180,167 C 176,169 172,166 170,162 C 166,156 164,146 162,134 C 160,122 160,112 162,104 C 163,100 162,96 160,92" />
    <!-- Back Left Side -->
    <path d="M 42,90 C 41,102 41,114 43,124 C 44,132 47,138 51,142 C 54,146 57,150 58,155" />
    <!-- Back Right Side -->
    <path d="M 158,90 C 159,102 159,114 157,124 C 156,132 153,138 149,142 C 146,146 143,150 142,155" />
    <!-- Hip Left -->
    <path d="M 58,155 C 60,160 64,166 70,170 C 74,173 77,177 78,184" />
    <!-- Hip Right -->
    <path d="M 142,155 C 140,160 136,166 130,170 C 126,173 123,177 122,184" />
    <!-- Left Leg Outer -->
    <path d="M 78,184 C 77,198 74,218 70,238 C 66,258 62,278 60,298 C 58,318 58,338 60,350 C 61,358 64,364 68,367" />
    <!-- Left Leg Inner -->
    <path d="M 68,367 C 72,370 76,368 79,362 C 81,354 82,342 82,326 C 82,310 80,290 78,270 C 76,250 76,230 78,210 L 80,192" />
    <!-- Right Leg Outer -->
    <path d="M 122,184 C 123,198 126,218 130,238 C 134,258 138,278 140,298 C 142,318 142,338 140,350 C 139,358 136,364 132,367" />
    <!-- Right Leg Inner -->
    <path d="M 132,367 C 128,370 124,368 121,362 C 119,354 118,342 118,326 C 118,310 120,290 122,270 C 124,250 124,230 122,210 L 120,192" />
    <!-- Inner Leg Gap -->
    <path d="M 80,192 C 85,194 92,196 100,196 C 108,196 115,194 120,192" />
    <!-- Spine -->
    <path d="M 100,53 L 100,155" opacity="0.4" />
    <!-- Shoulder Blade Lines -->
    <path d="M 60,75 C 68,72 78,70 90,72" opacity="0.35" />
    <path d="M 140,75 C 132,72 122,70 110,72" opacity="0.35" />
    <!-- Lat/Trapezius Lines -->
    <path d="M 60,95 C 70,100 80,102 95,100" opacity="0.3" />
    <path d="M 140,95 C 130,100 120,102 105,100" opacity="0.3" />
    <!-- Glute Division -->
    <path d="M 58,170 C 68,168 80,172 100,172 C 120,172 132,168 142,170" opacity="0.3" />
    <!-- Glute Cleft -->
    <path d="M 100,162 L 100,185" opacity="0.3" />
    <!-- Hamstring Lines -->
    <path d="M 68,230 C 70,240 72,250 74,260" opacity="0.2" />
    <path d="M 132,230 C 130,240 128,250 126,260" opacity="0.2" />
    <!-- Calf Lines -->
    <path d="M 64,295 C 66,305 68,315 68,325" opacity="0.2" />
    <path d="M 136,295 C 134,305 132,315 132,325" opacity="0.2" />
    <!-- Knee Back Creases -->
    <path d="M 66,280 C 70,277 74,277 78,280" opacity="0.3" />
    <path d="M 122,280 C 126,277 130,277 134,280" opacity="0.3" />
  </g>
</svg>
